<svg xmlns="http://www.w3.org/2000/svg" xmlns:xlink="http://www.w3.org/1999/xlink" xmlns:inkscape="http://www.inkscape.org/namespaces/inkscape" version="1.1" width="485.0769" height="202.0262" viewBox="0 0 485.0769 202.0262">
<g inkscape:groupmode="layer" inkscape:label="&#x0421;&#x043B;&#x043E;&#x0439; 1">
</g>
<g inkscape:groupmode="layer" inkscape:label="&#x0421;&#x043B;&#x043E;&#x0439; 1">
</g>
<g inkscape:groupmode="layer" inkscape:label="&#x0421;&#x043B;&#x043E;&#x0439; 2">
<path transform="matrix(1,0,0,-1,1,201.0262)" d="M349.5694 200.0248V181.5576C324.2509 181.5576 303.7221 161.2826 303.7221 136.2747H303.732V72.5236H285.0262V136.2747C285.0262 171.487 313.9251 200.0248 349.5694 200.0248" fill="#9e886f"/>
<path transform="matrix(1,0,0,-1,1,201.0262)" d="M64.5489 90.9862V90.9918H18.7016V136.2705C18.7016 161.284 39.2247 181.5591 64.5489 181.5591 89.8719 181.5591 110.3961 161.284 110.3961 136.2705 110.3961 111.2615 89.8719 90.9862 64.5489 90.9862ZM64.5489 200.0262C28.8992 200.0262 0 171.4827 0 136.2705V51.442H18.7016V72.519H64.5489C100.1931 72.519 129.092 101.0628 129.092 136.2705 129.092 171.4827 100.1931 200.0262 64.5489 200.0262" fill="#9e886f"/>
<path transform="matrix(1,0,0,-1,1,201.0262)" d="M271.8975 200.0248V136.2747C271.8975 101.0628 242.9983 72.5236 207.3543 72.5236 171.7058 72.5236 142.8066 101.0628 142.8066 136.2747V200.0248H161.517V136.2747H161.5071C161.5071 111.2601 182.0313 90.9848 207.3543 90.9848 232.6728 90.9848 253.1974 111.2601 253.1974 136.2747H253.1928V200.0248Z" fill="#9e886f"/>
<path transform="matrix(1,0,0,-1,1,201.0262)" d="M378.0553 145.5163H373.6454C373.8283 146.3944 374.0428 147.2584 374.2761 148.1165 379.5381 167.3867 397.3601 181.5622 418.5281 181.5622 439.7031 181.5622 457.5251 167.3867 462.786 148.1165 463.0249 147.2584 463.2335 146.3902 463.4209 145.5163H381.2499ZM458.1703 132.1084C458.2106 132.1126 458.2667 132.1126 458.333 132.1183L458.5921 132.1328C462.3094 132.3516 483.0769 133.5407 483.0769 133.5407V136.2733C483.0769 171.4856 454.178 200.0234 418.5281 200.0234 382.8841 200.0234 353.9906 171.4856 353.9906 136.2733 353.9906 101.0656 382.8841 72.5221 418.5281 72.5221 448.6107 72.5221 473.8946 92.8434 481.0456 120.3559H461.4613C454.9453 103.1992 438.1787 90.9833 418.5281 90.9833 396.394 90.9833 377.9271 106.4744 373.6352 127.0794L458.0277 132.0982C458.0379 132.0982 458.0838 132.1027 458.1703 132.1084" fill="#9e886f"/>
<path transform="matrix(1,0,0,-1,1,201.0262)" d="M114.0503 .3226H111.45V10.8828C111.45 15.7374 109.0111 18.267 105.1112 18.267 101.211 18.267 98.7721 15.7791 98.7721 11.0801V.3226H96.1719V28.4196H98.7721V17.4246C100.2348 19.8317 102.2258 20.7159 105.1112 20.7159 110.5157 20.7159 114.0503 17.4246 114.0503 10.8828Z" fill="#9e886f"/>
<path transform="matrix(1,0,0,-1,1,201.0262)" d="M130.8759 2.4503C135.2642 2.4503 138.7179 5.9445 138.7179 10.3586 138.7179 14.7728 135.2642 18.267 130.8759 18.267 126.4878 18.267 122.9533 14.7728 122.9533 10.3586 122.9533 6.0208 126.4878 2.4503 130.8759 2.4503ZM130.8356 .0028C125.1876-.1196 120.2309 4.7769 120.3531 10.3586 120.2309 15.9361 125.1876 20.8369 130.8356 20.7145 136.4837 20.8369 141.4406 15.9361 141.3181 10.3586 141.4406 4.7769 136.4837-.1196 130.8356 .0028" fill="#9e886f"/>
<path transform="matrix(1,0,0,-1,1,201.0262)" d="M178.9101 .3226H176.3101V10.8828C176.3101 15.7374 174.0756 18.267 170.4591 18.267 166.8424 18.267 164.5679 15.7374 164.5679 10.8828V.3226H161.9677V10.8828C161.9677 15.7374 159.7275 18.267 156.111 18.267 152.4946 18.267 150.2198 15.7374 150.2198 10.8828V.3226H147.6196V10.8828C147.6196 17.4246 150.9109 20.7159 156.111 20.7159 159.4843 20.7159 162.1706 19.1106 163.2677 15.9361 164.3649 19.1106 167.0873 20.7159 170.4591 20.7159 175.6191 20.7159 178.9101 17.4246 178.9101 10.8828Z" fill="#9e886f"/>
<path transform="matrix(1,0,0,-1,1,201.0262)" d="M203.0927 11.7235C202.7673 13.6066 201.9135 15.1356 200.533 16.3809 199.1509 17.6247 197.4852 18.2639 195.5747 18.2639 193.6253 18.2639 191.9597 17.6247 190.5372 16.3809 189.1148 15.1356 188.261 13.572 187.937 11.7235ZM205.8557 10.6407V10.275C205.8557 9.9556 205.8557 9.7166 205.8137 9.5539H187.937C188.0997 5.5817 191.3491 2.4489 195.5344 2.4489 198.0941 2.4489 200.3703 3.5762 201.833 5.3385H205.0019C203.0927 2.0874 199.4763 0 195.5747 0 189.7654 0 185.2089 4.6573 185.2089 10.3156 185.1324 15.8973 189.8059 20.8338 195.5344 20.713 201.0195 20.713 205.6929 16.5781 205.8557 10.6407" fill="#9e886f"/>
<path transform="matrix(1,0,0,-1,1,201.0262)" d="M236.8638 20.7145C240.8862 20.7145 244.4221 18.428 246.0881 15.0565H243.2849C241.8222 17.0215 239.546 18.2656 236.9055 18.2656 232.5175 18.2656 228.9815 14.7713 228.9815 10.3586 228.9815 6.0208 232.5175 2.4503 236.9055 2.4503 239.5057 2.4503 241.8222 3.7346 243.2849 5.7013H246.1686C244.5029 2.2935 240.9282 .0028 236.8638 .0028 231.2172-.1196 226.2589 4.7812 226.3813 10.3586 226.2589 15.9403 231.2172 20.8352 236.8638 20.7145" fill="#9e886f"/>
<path transform="matrix(1,0,0,-1,1,201.0262)" d="M262.8332 2.4503C267.2212 2.4503 270.6752 5.9445 270.6752 10.3586 270.6752 14.7728 267.2212 18.267 262.8332 18.267 258.4449 18.267 254.9103 14.7728 254.9103 10.3586 254.9103 6.0208 258.4449 2.4503 262.8332 2.4503ZM262.7929 .0028C257.1449-.1196 252.1879 4.7769 252.3104 10.3586 252.1879 15.9361 257.1449 20.8369 262.7929 20.7145 268.4407 20.8369 273.3976 15.9361 273.2751 10.3586 273.3976 4.7769 268.4407-.1196 262.7929 .0028" fill="#9e886f"/>
<path transform="matrix(1,0,0,-1,1,201.0262)" d="M310.8688 .3226H308.2686V10.8828C308.2686 15.7374 306.0343 18.267 302.4176 18.267 298.8011 18.267 296.5263 15.7374 296.5263 10.8828V.3226H293.9204V10.8828C293.9204 15.7374 291.6862 18.267 288.0697 18.267 284.453 18.267 282.1785 15.7374 282.1785 10.8828V.3226H279.5769V10.8828C279.5769 17.4246 282.8679 20.7159 288.0697 20.7159 291.4415 20.7159 294.1237 19.1106 295.2207 15.9361 296.322 19.1106 299.0443 20.7159 302.4176 20.7159 307.5775 20.7159 310.8688 17.4246 310.8688 10.8828Z" fill="#9e886f"/>
<path transform="matrix(1,0,0,-1,1,201.0262)" d="M319.2018 17.9444H316.154V20.3919H319.2837C319.7302 25.2479 322.4928 28.0973 326.9214 28.5392V26.0918C324.1182 25.6093 322.1674 23.6426 321.8839 20.3919H326.9214V17.9444H321.8017V.3254H319.2018Z" fill="#9e886f"/>
<path transform="matrix(1,0,0,-1,1,201.0262)" d="M341.3098 2.4503C345.6981 2.4503 349.1518 5.9445 349.1518 10.3586 349.1518 14.7728 345.6981 18.267 341.3098 18.267 336.9214 18.267 333.3855 14.7728 333.3855 10.3586 333.3855 6.0208 336.9214 2.4503 341.3098 2.4503ZM341.2695 .0028C335.6215-.1196 330.6645 4.7769 330.7856 10.3586 330.6645 15.9361 335.6215 20.8369 341.2695 20.7145 346.9158 20.8369 351.8742 15.9361 351.752 10.3586 351.8742 4.7769 346.9158-.1196 341.2695 .0028" fill="#9e886f"/>
<path transform="matrix(1,0,0,-1,1,201.0262)" d="M358.0549 10.7589C358.0549 17.2202 361.3042 20.5115 366.3836 20.5115 366.6685 20.5115 366.8717 20.5115 366.9925 20.4755V18.0221C366.8717 18.0624 366.6685 18.0624 366.3836 18.0624 362.8491 18.0624 360.6551 15.5747 360.6551 10.7589V.3226H358.0549Z" fill="#9e886f"/>
<path transform="matrix(1,0,0,-1,1,201.0262)" d="M378.536 17.9444V9.8734C378.536 5.5414 380.4063 3.1745 383.6557 2.6923V.2044C378.9017 .6868 375.9361 3.8554 375.9361 9.7985V17.9444H372.8883V20.3919H375.9361V26.7367H378.536V20.3919H383.6557V17.9444Z" fill="#9e886f"/>
</g>
</svg>
